<svg width="120.47" height="122.88" xmlns="http://www.w3.org/2000/svg" data-name="Layer 1">

 <title>how-to</title>
 <g>
  <title>Layer 1</title>
  <path id="svg_1" fill-rule="evenodd" d="m32.2,17l62.29,0a17.24,17.24 0 0 1 17.2,17.2l0,38.35a17.24,17.24 0 0 1 -17.2,17.2l-32.57,0l-26.11,22.45a2.9,2.9 0 0 1 -4.81,-2.39l1.39,-20.07l-0.19,0a17.24,17.24 0 0 1 -17.2,-17.19l0,-38.35a17.24,17.24 0 0 1 17.2,-17.2zm35.4,44.65l-11.31,0l0,-0.46a13.89,13.89 0 0 1 0.65,-4.69a10.39,10.39 0 0 1 2,-3.29a59.46,59.46 0 0 1 5.78,-5.21q2.41,-2 2.41,-3.6a3.35,3.35 0 0 0 -1,-2.55a4.19,4.19 0 0 0 -2.94,-0.91a4.67,4.67 0 0 0 -3.49,1.41c-0.93,0.92 -1.52,2.56 -1.77,4.87l-11.53,-1.47a15.81,15.81 0 0 1 4.6,-10.26q4,-3.88 12.39,-3.88c4.33,0 7.81,0.9 10.48,2.7a11.3,11.3 0 0 1 5.42,9.77a9.36,9.36 0 0 1 -1.39,4.92a23.65,23.65 0 0 1 -5.71,5.75a15.44,15.44 0 0 0 -3.8,3.83a5.57,5.57 0 0 0 -0.79,3.1l0,-0.03zm-11.7,3.67l12.1,0l0,8.68l-12.1,0l0,-8.68zm65.89,-20.32a16.92,16.92 0 0 1 13.68,16.55l0,38.33a16.9,16.9 0 0 1 -16.85,16.85l-0.62,0l1.42,20.44a2.54,2.54 0 0 1 -4.18,2.1l-26.24,-23.2l-34.51,0l17,-17.3l36,0a14.34,14.34 0 0 0 14.3,-14.3l0,-38.36c0,-0.38 0,-0.76 0,-1.13l0,0.02zm-27.31,-22.2l-62.28,0a11.44,11.44 0 0 0 -11.4,11.4l0,38.35a11.44,11.44 0 0 0 11.4,11.45l3.53,0a2.9,2.9 0 0 1 2.69,3.08l-1.13,16.23l21.54,-18.52a2.87,2.87 0 0 1 2,-0.84l33.65,0a11.44,11.44 0 0 0 11.4,-11.4l0,-38.35a11.44,11.44 0 0 0 -11.4,-11.4z" class="cls-1"/>
  <rect id="svg_3" height="60" width="169" y="92.94" x="83.23499" fill="none"/>
  <rect id="svg_14" height="60" width="97" y="93.94" x="77.23499" fill="#ffffff"/>
  <rect id="svg_15" height="26" width="25" y="82.94" x="117.23499" fill="#ffffff"/>
  <rect id="svg_16" height="42" width="31" y="97.94" x="53.23499" fill="#ffffff"/>
 </g>
</svg>