<?xml version="1.0" encoding="utf-8"?>
<!-- Generator: Adobe Illustrator 19.2.1, SVG Export Plug-In . SVG Version: 6.00 Build 0)  -->
<svg version="1.1" id="Layer_2" xmlns="http://www.w3.org/2000/svg" xmlns:xlink="http://www.w3.org/1999/xlink" x="0px" y="0px"
	 viewBox="0 0 80.3 80.3" style="enable-background:new 0 0 80.3 80.3;" xml:space="preserve">
<style type="text/css">
	.st0{fill:#EB6A5C;}
	.st1{fill:#552F2F;}
	.st2{fill:#2384AB;}
	.st3{fill:#FFFFFF;}
	.st4{fill:#0C2C48;}
	.st5{fill:#F6A09C;}
	.st6{fill:#61C3AF;}
	.st7{fill:#2F4555;}
	.st8{fill:#55AB99;}
	.st9{fill:#ED6B5A;}
	.st10{fill:#2484AD;}
	.st11{fill:#FCA886;}
	.st12{fill:#F1CC4B;}
	.st13{fill:#6EB9E0;}
	.st14{fill:#50646F;}
	.st15{fill:#EDC84A;}
	.st16{fill:#E7543A;}
	.st17{fill:#F38D80;}
	.st18{fill:#F2F2F2;}
	.st19{fill:#81CAFF;}
	.st20{clip-path:url(#SVGID_4_);fill:#55AB99;}
	.st21{fill:#BABFC5;}
	.st22{fill:#BBC2C7;}
</style>
<g>
	<circle class="st8" cx="40.2" cy="40.2" r="40.2"/>
	<circle class="st4" cx="40.2" cy="40.2" r="29.2"/>
	<g>
		<g>
			<path class="st14" d="M40.2,65.5c-14,0-25.3-11.3-25.3-25.3c0-14,11.3-25.3,25.3-25.3s25.3,11.3,25.3,25.3
				C65.5,54.1,54.1,65.5,40.2,65.5z M40.2,16.5c-13.1,0-23.7,10.6-23.7,23.7c0,13.1,10.6,23.7,23.7,23.7s23.7-10.6,23.7-23.7
				C63.9,27.1,53.2,16.5,40.2,16.5z"/>
		</g>
		<g>
			<path class="st14" d="M40.2,59.3C29.6,59.3,21,50.7,21,40.2S29.6,21,40.2,21s19.1,8.6,19.1,19.1S50.7,59.3,40.2,59.3z M40.2,22.6
				c-9.7,0-17.5,7.9-17.5,17.5c0,9.7,7.9,17.5,17.5,17.5s17.5-7.9,17.5-17.5C57.7,30.5,49.8,22.6,40.2,22.6z"/>
		</g>
		<g>
			<path class="st14" d="M40.2,52c-6.5,0-11.8-5.3-11.8-11.8c0-6.5,5.3-11.8,11.8-11.8c6.5,0,11.8,5.3,11.8,11.8
				C52,46.7,46.7,52,40.2,52z M40.2,30C34.5,30,30,34.5,30,40.2c0,5.6,4.6,10.2,10.2,10.2c5.6,0,10.2-4.6,10.2-10.2
				C50.4,34.5,45.8,30,40.2,30z"/>
		</g>
	</g>
	<circle class="st12" cx="46.5" cy="16" r="3.4"/>
	<circle class="st9" cx="25.2" cy="49.7" r="3.4"/>
	<g>
		<g>
			<g>
				<polygon class="st4" points="37.6,41.5 22.1,17.4 27,14.6 42.5,38.6 				"/>
			</g>
		</g>
		<g>
			
				<rect x="31.4" y="14.1" transform="matrix(0.8396 -0.5433 0.5433 0.8396 -9.8349 21.9142)" class="st8" width="1.5" height="27"/>
		</g>
	</g>
	<circle class="st8" cx="40.2" cy="39.4" r="3.4"/>
</g>
</svg>
