<svg xmlns="http://www.w3.org/2000/svg" viewBox="0 0 32 32"><g id="information"><path d="M25,2H7A3,3,0,0,0,4,5V6A1,1,0,0,0,6,6V5A1,1,0,0,1,7,4H25a1,1,0,0,1,1,1V19a1,1,0,0,1-1,1H23a1,1,0,0,0,0,2h2a3,3,0,0,0,3-3V5A3,3,0,0,0,25,2Z"/><path d="M19,20h-.64a7.74,7.74,0,0,0-6.18,3.09L10,26V23a3,3,0,0,0-3-3,1,1,0,0,1-1-1V10a1,1,0,0,0-2,0v9a3,3,0,0,0,3,3,1,1,0,0,1,1,1v6a1,1,0,0,0,.68.95A1.19,1.19,0,0,0,9,30a1,1,0,0,0,.8-.4l4-5.31A5.77,5.77,0,0,1,18.36,22H19a1,1,0,0,0,0-2Z"/><path d="M15,17a1,1,0,0,0,2,0V10a1,1,0,0,0-2,0Z"/><path d="M16,8a1,1,0,0,0,0-2h0a1,1,0,1,0,0,2Z"/></g></svg>